<svg xmlns="http://www.w3.org/2000/svg" viewBox="0 0 320 88"><defs><style>.a{fill:#171717;}</style></defs><title>ice_logo</title><rect class="a" x="1.06" y="25.82" width="17.94" height="59.98"/><path class="a" d="M84.76,63A32,32,0,0,1,53.32,87.74a31.75,31.75,0,0,1-32.09-32.1A31.48,31.48,0,0,1,52.89,23.77c15.88,0,28.74,10.48,31.77,25.18H66.5c-1.94-4.11-5.51-8.43-13-8.43C45,40.09,39.26,47.11,39.26,55.76S45,71,53.53,71c7.45,0,11-4.33,13-8Z"/><path class="a" d="M273.11,49.16c-.75-3.56-4.33-10.26-13.62-10.26s-12.86,6.7-13.61,10.26ZM289,67a35.19,35.19,0,0,1-12.21,15.34,29.13,29.13,0,0,1-17.07,5.4A31.82,31.82,0,0,1,227.94,56c0-16.74,13.18-32.2,31.44-32.2S291,38.25,291,56.51a24.67,24.67,0,0,1-.43,4.76h-45c1.08,7.13,7,11.35,14.05,11.35,5.51,0,8.43-2.49,10.92-5.62Z"/><polygon class="a" points="311.36 25.82 311.36 9.63 293.42 9.63 293.42 85.8 311.36 85.8 311.36 43.59 320 43.59 320 25.82 311.36 25.82"/><path class="a" d="M20.06,10.29a10,10,0,1,1-10-10,10,10,0,0,1,10,10"/><path class="a" d="M131.42,49.16c-.76-3.56-4.32-10.26-13.62-10.26s-12.87,6.7-13.62,10.26ZM147.3,67a35.17,35.17,0,0,1-12.21,15.34A29.11,29.11,0,0,1,118,87.74,31.83,31.83,0,0,1,86.24,56c0-16.74,13.19-32.2,31.45-32.2s31.66,14.48,31.66,32.74a25,25,0,0,1-.43,4.76H104C105,68.4,111,72.62,118,72.62c5.51,0,8.42-2.49,10.9-5.62Z"/><path class="a" d="M198,23.77c-16.34,0-27.77,8.11-27.77,24.54V85.8h17.94V53.06c0-4.21.43-12.43,9.83-12.43s9.83,8.21,9.83,12.43V85.8h17.94V48.31c0-16.42-11.43-24.54-27.77-24.54"/><path class="a" d="M167.28,75.77a10,10,0,1,1-10-10,10,10,0,0,1,10,10"/></svg>